<?xml version="1.0" encoding="utf-8"?>
<!-- Generator: Adobe Illustrator 17.0.0, SVG Export Plug-In . SVG Version: 6.00 Build 0)  -->
<!DOCTYPE svg PUBLIC "-//W3C//DTD SVG 1.1//EN" "http://www.w3.org/Graphics/SVG/1.1/DTD/svg11.dtd">
<svg version="1.1" id="Layer_1" xmlns="http://www.w3.org/2000/svg" xmlns:xlink="http://www.w3.org/1999/xlink" x="0px" y="0px"
	 width="137.238px" height="38px" viewBox="0 -16.5 137.238 38" enable-background="new 0 -16.5 137.238 38" xml:space="preserve">
<g id="Layer_1_1_" display="none">
	<g display="inline">
		<path fill="#222222" d="M36.988,8.672h4.395v14.766c0,1.357-0.303,2.559-0.908,3.604c-0.596,1.035-1.44,1.836-2.534,2.402
			s-2.329,0.85-3.706,0.85c-2.256,0-4.014-0.571-5.274-1.714c-1.26-1.152-1.89-2.778-1.89-4.878h4.424
			c0,1.045,0.22,1.816,0.659,2.314s1.133,0.747,2.08,0.747c0.84,0,1.509-0.288,2.007-0.864s0.747-1.396,0.747-2.461
			C36.988,23.438,36.988,8.672,36.988,8.672z M53.21,21.929c0-1.572,0.303-2.974,0.908-4.204c0.605-1.23,1.475-2.183,2.607-2.856
			c1.143-0.674,2.466-1.011,3.97-1.011c2.139,0,3.882,0.654,5.229,1.963c1.357,1.309,2.114,3.086,2.271,5.332l0.029,1.084
			c0,2.432-0.679,4.385-2.036,5.859c-1.357,1.465-3.179,2.197-5.464,2.197s-4.111-0.733-5.479-2.197
			c-1.357-1.465-2.036-3.457-2.036-5.977v-0.19H53.21z M57.443,22.236c0,1.504,0.283,2.656,0.85,3.457
			c0.566,0.791,1.377,1.187,2.432,1.187c1.025,0,1.826-0.391,2.402-1.172c0.576-0.791,0.864-2.051,0.864-3.779
			c0-1.475-0.288-2.617-0.864-3.428c-0.576-0.811-1.387-1.216-2.432-1.216c-1.035,0-1.836,0.405-2.402,1.216
			C57.727,19.302,57.443,20.547,57.443,22.236z M83.963,15.879c1.123-1.348,2.534-2.021,4.233-2.021
			c3.438,0,5.181,1.997,5.229,5.991V30h-4.233V19.966c0-0.908-0.195-1.577-0.586-2.007c-0.391-0.439-1.04-0.659-1.948-0.659
			c-1.24,0-2.139,0.478-2.695,1.436V30H79.73V7.5h4.233C83.963,7.5,83.963,15.879,83.963,15.879z M109.516,14.15l0.131,1.831
			c1.133-1.416,2.652-2.124,4.556-2.124c1.68,0,2.93,0.493,3.75,1.479s1.24,2.461,1.26,4.424V30h-4.234V19.863
			c0-0.899-0.195-1.548-0.585-1.948c-0.391-0.41-1.04-0.615-1.949-0.615c-1.191,0-2.085,0.508-2.68,1.523V30h-4.234V14.15H109.516z"
			/>
		<path fill="#E9B949" d="M131.714,30V8.672h6.562c1.875,0,3.55,0.425,5.025,1.274c1.484,0.84,2.641,2.041,3.471,3.604
			c0.831,1.553,1.246,3.32,1.246,5.303v0.981c0,1.982-0.411,3.745-1.231,5.288c-0.81,1.543-1.958,2.739-3.442,3.589
			c-1.485,0.85-3.159,1.279-5.025,1.289C138.32,30,131.714,30,131.714,30z M136.108,12.231V26.47h2.124
			c1.719,0,3.033-0.562,3.941-1.684c0.908-1.123,1.372-2.729,1.391-4.819v-1.128c0-2.168-0.449-3.809-1.347-4.922
			c-0.899-1.123-2.212-1.685-3.941-1.685L136.108,12.231L136.108,12.231z M159.288,21.929c0-1.572,0.303-2.974,0.908-4.204
			c0.606-1.23,1.475-2.183,2.608-2.856c1.142-0.674,2.466-1.011,3.969-1.011c2.139,0,3.882,0.654,5.23,1.963
			c1.357,1.309,2.114,3.086,2.27,5.332l0.03,1.084c0,2.432-0.679,4.385-2.036,5.859c-1.358,1.465-3.179,2.197-5.464,2.197
			s-4.112-0.733-5.479-2.197c-1.357-1.465-2.036-3.457-2.036-5.977V21.929z M163.521,22.236c0,1.504,0.284,2.656,0.85,3.457
			c0.567,0.791,1.377,1.187,2.432,1.187c1.025,0,1.826-0.391,2.402-1.172c0.576-0.791,0.864-2.051,0.864-3.779
			c0-1.475-0.288-2.617-0.864-3.428c-0.576-0.811-1.387-1.216-2.432-1.216c-1.035,0-1.835,0.405-2.402,1.216
			C163.805,19.302,163.521,20.547,163.521,22.236z M193.205,30.293c-2.324,0-4.219-0.713-5.684-2.139
			c-1.455-1.426-2.182-3.325-2.182-5.698v-0.41c0-1.592,0.307-3.013,0.923-4.263c0.615-1.26,1.484-2.227,2.607-2.9
			c1.133-0.684,2.422-1.025,3.867-1.025c2.168,0,3.872,0.684,5.113,2.051c1.25,1.367,1.875,3.306,1.875,5.815v1.729h-10.093
			c0.137,1.035,0.547,1.865,1.23,2.49c0.694,0.625,1.568,0.938,2.622,0.938c1.631,0,2.906-0.591,3.824-1.772l2.08,2.329
			c-0.635,0.898-1.494,1.602-2.578,2.109C195.725,30.044,194.523,30.293,193.205,30.293z M192.722,17.285
			c-0.84,0-1.524,0.283-2.051,0.85c-0.518,0.566-0.85,1.377-0.996,2.432h5.888V20.23c-0.019-0.938-0.273-1.66-0.761-2.168
			C194.313,17.544,193.62,17.285,192.722,17.285z"/>
	</g>
</g>
<g id="Layer_2">
	<text transform="matrix(1 0 0 1 6.9644 16.0972)" font-family="'Karla-Bold'" font-size="40.5642">J Shao</text>
</g>
</svg>
